<svg version="1.2" xmlns="http://www.w3.org/2000/svg" viewBox="0 0 512 512" width="512" height="512">
	<title>logo</title>
	<defs>
		<linearGradient id="g1" x2="1" gradientUnits="userSpaceOnUse" gradientTransform="matrix(216.925,217.536,-217.468,216.857,180.78,78.612)">
			<stop offset="0" stop-color="#3deaff"/>
			<stop offset="1" stop-color="#3d50ff"/>
		</linearGradient>
		<linearGradient id="g2" x2="1" gradientUnits="userSpaceOnUse" gradientTransform="matrix(35.196,35.295,-35.295,35.196,257.492,183.01)">
			<stop offset="0" stop-color="#3deaff"/>
			<stop offset="1" stop-color="#3d50ff"/>
		</linearGradient>
		<linearGradient id="g3" x2="1" gradientUnits="userSpaceOnUse" gradientTransform="matrix(0,-444.869,1007.029,0,221.224,453.128)">
			<stop offset="0" stop-color="#3deaff"/>
			<stop offset="1" stop-color="#3d50ff"/>
		</linearGradient>
		<linearGradient id="g4" x2="1" gradientUnits="userSpaceOnUse" gradientTransform="matrix(328.115,328.115,-329.272,329.272,175.013,122.561)">
			<stop offset="0" stop-color="#ffd53d"/>
			<stop offset="1" stop-color="#ff873d"/>
		</linearGradient>
		<linearGradient id="g5" x2="1" gradientUnits="userSpaceOnUse" gradientTransform="matrix(324.47,324.47,-323.306,323.306,261.877,22.67)">
			<stop offset="0" stop-color="#ffd53d"/>
			<stop offset="1" stop-color="#ff873d"/>
		</linearGradient>
		<linearGradient id="g6" x2="1" gradientUnits="userSpaceOnUse" gradientTransform="matrix(286.615,286.615,-233.382,233.382,91.197,213.376)">
			<stop offset="0" stop-color="#ffd53d"/>
			<stop offset="1" stop-color="#ff873d"/>
		</linearGradient>
		<linearGradient id="g7" x2="1" gradientUnits="userSpaceOnUse" gradientTransform="matrix(351.833,351.833,-431.937,431.937,128.639,62.255)">
			<stop offset="0" stop-color="#ffd53d"/>
			<stop offset="1" stop-color="#ff873d"/>
		</linearGradient>
		<linearGradient id="g8" x2="1" gradientUnits="userSpaceOnUse" gradientTransform="matrix(67.19,67.38,-17.797,17.747,127.27,246.006)">
			<stop offset="0" stop-color="#00e0b6"/>
			<stop offset="1" stop-color="#087d7b"/>
		</linearGradient>
		<linearGradient id="g9" x2="1" gradientUnits="userSpaceOnUse" gradientTransform="matrix(-67.19,67.38,-17.797,-17.747,389.499,246.006)">
			<stop offset="0" stop-color="#00e0b6"/>
			<stop offset="1" stop-color="#087d7b"/>
		</linearGradient>
		<linearGradient id="g10" x2="1" gradientUnits="userSpaceOnUse" gradientTransform="matrix(196.823,240.395,-247.755,202.849,123.578,52.552)">
			<stop offset="0" stop-color="#ffd53d"/>
			<stop offset="1" stop-color="#ff873d"/>
		</linearGradient>
		<linearGradient id="g11" x2="1" gradientUnits="userSpaceOnUse" gradientTransform="matrix(213.147,260.332,-294.791,241.36,231.332,-66.457)">
			<stop offset="0" stop-color="#ffd53d"/>
			<stop offset="1" stop-color="#ff873d"/>
		</linearGradient>
		<linearGradient id="g12" x2="1" gradientUnits="userSpaceOnUse" gradientTransform="matrix(230.741,281.821,-364.877,298.743,-15.839,99.32)">
			<stop offset="0" stop-color="#ffd53d"/>
			<stop offset="1" stop-color="#ff873d"/>
		</linearGradient>
		<linearGradient id="g13" x2="1" gradientUnits="userSpaceOnUse" gradientTransform="matrix(424.689,0,0,181.835,43.656,24.23)">
			<stop offset="0" stop-color="#00e0b6"/>
			<stop offset="1" stop-color="#087d7b"/>
		</linearGradient>
		<linearGradient id="g14" x2="1" gradientUnits="userSpaceOnUse" gradientTransform="matrix(3.937,-125.611,304.628,9.547,215.79,239.226)">
			<stop offset="0" stop-color="#00e0b6"/>
			<stop offset="1" stop-color="#087d7b"/>
		</linearGradient>
	</defs>
	<style>
		.s0 { fill: url(#g1) } 
		.s1 { fill: url(#g2) } 
		.s2 { fill: url(#g3) } 
		.s3 { fill: url(#g4) } 
		.s4 { fill: url(#g5) } 
		.s5 { fill: url(#g6) } 
		.s6 { fill: url(#g7) } 
		.s7 { fill: url(#g8) } 
		.s8 { fill: url(#g9) } 
		.s9 { fill: url(#g10) } 
		.s10 { fill: url(#g11) } 
		.s11 { fill: url(#g12) } 
		.s12 { fill: url(#g13) } 
		.s13 { fill: url(#g14) } 
	</style>
	<path id="&lt;Compound Path&gt;" fill-rule="evenodd" class="s0" d="m449.1 231.8c0 0-189.1 75-190.7 234.4-1.6-159.4-190.8-234.4-190.8-234.4 130.4-6.4 190.8 66.7 190.8 66.7 0 0 60.4-73.1 190.7-66.7zm-190.7 238.4q0-2 0-4 0 2 0 4zm7.1-173.6c-5 2.7-7.1 8.2-7.1 8.2 0 0-2.1-5.5-7.1-8.2-17.1-9-42.3 16.4 7.1 40 49.3-23.6 24.2-49 7.1-40z"/>
	<path id="&lt;Path&gt;" class="s1" d="m285.8 236.6c0 13.9-11.2 25.1-25.1 25.1-13.9 0-25.2-11.2-25.2-25.1 0-13.9 11.3-25.2 25.2-25.2 13.9 0 25.1 11.3 25.1 25.2z"/>
	<path id="&lt;Compound Path&gt;" fill-rule="evenodd" class="s2" d="m448.8 231.9q-0.3 0.1-0.9 0.4c-16 4.7-188 57.7-189.5 164.8-1.5-107.1-173.6-160.1-189.6-164.8q-0.5-0.3-0.8-0.4c14.3-0.5 27.7-0.3 40.3 0.5 102.3 8.3 150.1 66.1 150.1 66.1 0 0 47.8-57.8 150.1-66.1 12.6-0.8 26-1 40.3-0.5zm-190.4 168q0-1.4 0-2.8 0 1.4 0 2.8zm7.1-103.3c-5 2.7-7.1 8.2-7.1 8.2 0 0-2.1-5.5-7.1-8.2-17.1-9-42.3 16.4 7.1 40 49.3-23.6 24.2-49 7.1-40z"/>
	<g id="&lt;Group&gt;">
		<path id="&lt;Path&gt;" class="s3" d="m221.4 221.9v-58.4c0-4.7-3.8-8.5-8.5-8.5h-59.6c-22.5 0-40.7 18.3-40.7 40.7v25c41.6 3.8 74.4 15.4 99 28.2 6.1-7.3 9.8-16.7 9.8-27z"/>
		<path id="&lt;Path&gt;" class="s4" d="m410 195.7c0-22.4-18.3-40.7-40.7-40.7h-59.7c-4.6 0-8.4 3.8-8.4 8.5v58.4c0 9.3 3.1 17.9 8.2 24.8 25.2-12.4 58.6-23.4 100.6-26.5z"/>
		<path id="&lt;Path&gt;" class="s5" d="m179.5 343.6h-58.4c-4.7 0-8.5 3.8-8.5 8.5v59.6c0 22.4 18.2 40.7 40.7 40.7h59.6c4.7 0 8.5-3.8 8.5-8.5v-58.4c0-6-1.3-11.7-3.6-16.9q-3.4-5.6-7.2-11.1c-7.6-8.5-18.7-13.9-31.1-13.9z"/>
		<path id="&lt;Path&gt;" class="s6" d="m401.5 343.6h-58.4c-23.1 0-41.9 18.8-41.9 41.9v58.4c0 4.7 3.8 8.5 8.4 8.5h59.7c22.4 0 40.7-18.3 40.7-40.7v-59.6c0-4.7-3.8-8.5-8.5-8.5z"/>
	</g>
	<g id="&lt;Group&gt;">
		<path id="&lt;Path&gt;" class="s7" d="m135.1 291.4l4.6 3.5 4.4 3.7 1.1 0.9 1.1 1.1 2 2c1.4 1.3 2.8 2.6 4 4.1l3.8 4.3c1.1 1.5 2.2 3 3.4 4.5l1.7 2.3c0.6 0.7 1 1.6 1.5 2.4l3 4.8 0.1 0.1h17l-2.2-3-1.9-2.5-1-1.3-1-1.2-4.2-4.7c-0.7-0.7-1.3-1.6-2.1-2.3l-2.2-2.2c-1.6-1.4-3-2.9-4.6-4.3l-4.8-3.9c-1.5-1.4-3.2-2.6-4.9-3.8l-2.6-1.8-1.2-0.8-1.4-0.8-5.2-3.2-5.5-2.8c-3.7-1.8-7.4-3.4-11.3-4.8-7.6-2.7-15.5-4.6-23.4-5.1 7.7 1.8 15 4.9 21.9 8.7 3.4 1.8 6.7 3.9 9.9 6.1z"/>
		<path id="&lt;Path&gt;" class="s8" d="m381.7 291.4l-4.7 3.5-4.4 3.7-1.1 0.9-1 1.1-2.1 2c-1.3 1.3-2.7 2.6-3.9 4.1l-3.8 4.3c-1.2 1.5-2.3 3-3.4 4.5l-1.7 2.3c-0.6 0.7-1 1.6-1.6 2.4l-3 4.8v0.1h-17l2.2-3 1.9-2.5 0.9-1.3 1.1-1.2 4.1-4.7c0.7-0.7 1.4-1.6 2.2-2.3l2.2-2.2c1.5-1.4 3-2.9 4.5-4.3l4.8-3.9c1.6-1.4 3.3-2.6 5-3.8l2.5-1.8 1.3-0.8 1.3-0.8 5.3-3.2 5.5-2.8c3.7-1.8 7.4-3.4 11.2-4.8 7.7-2.7 15.5-4.6 23.5-5.1-7.7 1.8-15.1 4.9-21.9 8.7-3.4 1.8-6.7 3.9-9.9 6.1z"/>
	</g>
	<g id="&lt;Group&gt;">
		<path id="&lt;Path&gt;" class="s9" d="m212.9 155h-59.6c-22.5 0-40.7 18.3-40.7 40.7v25c41.6 3.8 74.4 15.4 99 28.2 6.1-7.3 9.8-16.7 9.8-27v-58.4c0-4.7-3.8-8.5-8.5-8.5z"/>
		<path id="&lt;Path&gt;" class="s10" d="m309.6 155c-4.6 0-8.4 3.8-8.4 8.5v58.4c0 9.3 3.1 17.9 8.2 24.8 6.1-3 12.8-6 19.9-8.7 10.7-25.9 17.6-53.8 20-83z"/>
		<path id="&lt;Path&gt;" class="s11" d="m179.5 343.6h-58.4c-4.7 0-8.5 3.8-8.5 8.5v54.6c38.2-5.5 73.8-18.7 105.3-38q-0.1-0.1-0.1-0.1-3.4-5.6-7.2-11.1c-7.6-8.5-18.7-13.9-31.1-13.9z"/>
	</g>
	<g id="&lt;Group&gt;">
		<path id="&lt;Path&gt;" class="s12" d="m468.3 181.2l-212.3-157-212.3 157v24.9l212.3-157.1 212.3 157.1z"/>
		<path id="&lt;Path&gt;" class="s13" d="m43.7 181.2v11.6l212.3-157 212.3 157v-11.6l-212.3-157z"/>
	</g>
</svg>